:version 1.10
:name ASF
:units
  mass 1
  length 1
  angle deg
:documentation
  ASF file generated by Kaydara
:root
  axis xyz
  order  tx ty tz rx ry rz
  position 0 0 0
  orientation 0 0 0
:bonedata
  begin
    id 1
    name RightUpLegDummy
    direction -1 2.30186e-007 8.31532e-007
    length 4.46685
    axis 0 0 0 xyz
  end
  begin
    id 2
    name RightUpLeg
    direction -2.30187e-007 -1 1.24343e-010
    length 16.4045
    axis -3.49089 -0.000906625 0.000286804 xyz
    dof rx ry rz
  end
  begin
    id 3
    name RightLeg
    direction -2.30181e-007 -1 -4.17157e-009
    length 17.5097
    axis 3.68512 0.0193738 -0.131023 xyz
    dof rx ry rz
  end
  begin
    id 4
    name RightFoot
    direction 8.31421e-007 -4.51202e-011 1
    length 6.49508
    axis 4.81691e-005 -0.120479 -0.188788 xyz
    dof rx ry rz
  end
  begin
    id 5
    name RightToes
    direction 0.00124746 -0.014064 0.9999
    length 3.85082
    axis 0.000481921 0.542163 -0.142578 xyz
    dof rx ry rz
  end
  begin
    id 6
    name SpineDummy
    direction 0.0717043 0.9409 -0.331007
    length 10.0032
    axis 0 0 0 xyz
  end
  begin
    id 7
    name Spine
    direction 2.30186e-007 1 4.58806e-011
    length 9.84055
    axis -0.001389 0.000121418 2.40972e-006 xyz
    dof rx ry rz
  end
  begin
    id 8
    name Spine1
    direction 0 0 0
    length 0
    axis -0.001389 0.000121451 1.30017e-006 xyz
    dof rx ry rz
  end
  begin
    id 9
    name HEadDummy
    direction -0.00347485 0.950688 -0.310128
    length 8.00997
    axis -0.001389 0.000121451 1.30017e-006 xyz
  end
  begin
    id 10
    name HEad
    direction -0.0222688 0.980941 0.193023
    length 5.12695
    axis -0.001389 0.000121451 1.30017e-006 xyz
    dof rx ry rz
  end
  begin
    id 11
    name LeftShoulder1Dummy
    direction 0.988871 0.146793 -0.0242004
    length 3.5792
    axis -0.001389 0.000121451 1.30017e-006 xyz
  end
  begin
    id 12
    name LeftShoulder1
    direction 0.993832 0.108932 0.020779
    length 4.16823
    axis -0.001389 0.000121451 1.30017e-006 xyz
    dof rx ry rz
  end
  begin
    id 13
    name LeftArm
    direction 1 3.44807e-006 -8.31404e-007
    length 9.91437
    axis -23.1894 0.134784 0.967509 xyz
    dof rx ry rz
  end
  begin
    id 14
    name LeftForeArm
    direction 1 3.44842e-006 -8.31581e-007
    length 9.08575
    axis -9.91835 -0.06569 -0.177793 xyz
    dof rx ry rz
  end
  begin
    id 15
    name LeftHand
    direction 0.992938 -0.0411636 0.11126
    length 5.32135
    axis -0.00960232 -0.00340091 0.185173 xyz
    dof rx ry rz
  end
  begin
    id 16
    name RightShoulderDummy
    direction -0.988871 0.146793 -0.0241962
    length 3.5792
    axis -0.001389 0.000121451 1.30017e-006 xyz
  end
  begin
    id 17
    name RightShoulder
    direction -0.993832 0.108933 0.0207785
    length 4.16823
    axis 0.215806 0.000203643 -0.0068026 xyz
    dof rx ry rz
  end
  begin
    id 18
    name RightArm
    direction -1 3.90912e-006 8.31284e-007
    length 9.91437
    axis -23.2009 -0.134239 -0.964101 xyz
    dof rx ry rz
  end
  begin
    id 19
    name RightForeArm
    direction -1 3.90882e-006 8.31502e-007
    length 9.08575
    axis -9.92322 0.0658061 0.178867 xyz
    dof rx ry rz
  end
  begin
    id 20
    name RightHand
    direction -0.992843 -0.0414603 0.112003
    length 5.28593
    axis -0.00960638 0.00330671 -0.185228 xyz
    dof rx ry rz
  end
  begin
    id 21
    name LeftUpLegDummy
    direction 1 -2.30186e-007 -8.31532e-007
    length 4.46685
    axis 0 0 0 xyz
  end
  begin
    id 22
    name LeftUpLeg
    direction -2.30187e-007 -1 6.00931e-010
    length 16.4045
    axis -3.48766 0.00143442 -0.000524262 xyz
    dof rx ry rz
  end
  begin
    id 23
    name LeftLeg
    direction -2.30187e-007 -1 1.6669e-009
    length 17.5097
    axis 3.68178 -0.00654042 -0.000285133 xyz
    dof rx ry rz
  end
  begin
    id 24
    name LeftFoot
    direction 8.31532e-007 -4.54478e-011 1
    length 6.49508
    axis 1.87233e-006 4.66016e-005 -8.6538e-006 xyz
    dof rx ry rz
  end
  begin
    id 25
    name LeftToes
    direction 0.00818058 -0.00485161 0.999955
    length 3.85048
    axis 1.06247e-005 4.65869e-005 -8.65513e-006 xyz
    dof rx ry rz
  end
:hierarchy
  begin
    root RightUpLegDummy SpineDummy LeftUpLegDummy
    RightUpLegDummy RightUpLeg
    RightUpLeg RightLeg
    RightLeg RightFoot
    RightFoot RightToes
    SpineDummy Spine
    Spine Spine1
    Spine1 HEadDummy LeftShoulder1Dummy RightShoulderDummy
    HEadDummy HEad
    LeftShoulder1Dummy LeftShoulder1
    LeftShoulder1 LeftArm
    LeftArm LeftForeArm
    LeftForeArm LeftHand
    RightShoulderDummy RightShoulder
    RightShoulder RightArm
    RightArm RightForeArm
    RightForeArm RightHand
    LeftUpLegDummy LeftUpLeg
    LeftUpLeg LeftLeg
    LeftLeg LeftFoot
    LeftFoot LeftToes
  end

:SAMPLES-PER-SECOND 30
:FULLY-SPECIFIED
:DEGREES
129
root  40.9448 31.5957 49.1467 -148.463 -69.7205 174.229
RightUpLeg  -55.8193 -7.52241 13.7638
RightLeg  40.7981 -3.93248 -2.99377
RightFoot  -8.72573 -0.0238655 0.0647453
RightToes  -17.8871 -0.0699959 -0.15962
Spine  18.6149 -0.831262 -0.448122
Spine1  30.8078 -2.39886 -2.6345
HEad  1.88986 -15.6765 27.6325
LeftShoulder1  0 -2.42657e-020 -4.95415e-022
LeftArm  -34.3359 -42.7388 -73.234
LeftForeArm  -156.189 -63.1309 -19.5607
LeftHand  10.6904 -29.6823 -39.2733
RightShoulder  0 2.42657e-020 1.07489e-018
RightArm  -44.0717 31.6939 89.6515
RightForeArm  27.8764 26.9329 5.1343
RightHand  -1.63353 20.7232 -8.54927
LeftUpLeg  -32.2729 16.2758 8.18618
LeftLeg  56.1311 4.13344 5.34751
LeftFoot  -1.51407 -0.0216597 -1.6391
LeftToes  -20.7302 1.18758e-006 1.19596e-007
130
root  40.2481 31.606 48.722 -151.113 -64.9558 177.019
RightUpLeg  -53.6824 -3.9375 13.1118
RightLeg  40.3348 -3.13468 -2.35251
RightFoot  -9.36371 -0.037567 -0.0811697
RightToes  -18.3148 -0.0722651 -0.163137
Spine  18.9408 -0.723364 -0.629987
Spine1  31.0791 -2.44945 -2.39161
HEad  2.04424 -14.2906 27.059
LeftShoulder1  0 -2.42657e-020 -4.95415e-022
LeftArm  -32.8416 -45.6408 -72.9571
LeftForeArm  -152.611 -58.8931 -16.2759
LeftHand  10.9022 -25.6058 -45.9383
RightShoulder  0 2.42657e-020 1.07489e-018
RightArm  -41.5361 33.4634 90.7987
RightForeArm  27.4059 26.6264 5.06633
RightHand  -1.48401 20.9087 -7.66232
LeftUpLeg  -35.0708 12.4046 6.45638
LeftLeg  59.7017 4.7276 6.96133
LeftFoot  -4.7838 -0.083121 -1.98974
LeftToes  -17.1211 1.18758e-006 1.19596e-007
131
root  39.5506 31.485 48.2581 -152.806 -60.2836 178.992
RightUpLeg  -52.3016 -0.262783 12.547
RightLeg  41.1113 -2.66986 -2.06587
RightFoot  -10.5553 -0.0510178 -0.174758
RightToes  -18.5709 -0.0747875 -0.166965
Spine  19.5768 -0.939207 -1.00868
Spine1  31.6574 -3.53348 -1.69314
HEad  2.3861 -12.6381 26.0676
LeftShoulder1  0 -2.42657e-020 -4.95415e-022
LeftArm  -30.8631 -48.6202 -72.1804
LeftForeArm  -150.487 -50.9871 -11.9713
LeftHand  10.2816 -20.077 -54.2667
RightShoulder  0 2.42657e-020 1.07489e-018
RightArm  -38.3894 35.8975 93.0743
RightForeArm  28.0936 25.8047 4.88516
RightHand  -1.42678 21.055 -7.29874
LeftUpLeg  -39.0684 6.67722 5.50378
LeftLeg  63.2792 5.48889 9.24716
LeftFoot  -8.53508 -0.203039 -2.72045
LeftToes  -13.4928 1.18758e-006 1.19596e-007
132
root  38.7916 31.2596 47.7967 -153.685 -55.7567 -179.702
RightUpLeg  -51.6911 2.09298 12.3792
RightLeg  43.1309 -1.40347 -1.18304
RightFoot  -12.4912 -0.0922283 -0.465194
RightToes  -19.0744 -0.0763591 -0.169339
Spine  20.532 -1.40774 -1.52279
Spine1  32.6354 -5.04211 -1.14291
HEad  3.04117 -10.0349 24.4657
LeftShoulder1  0 -2.42657e-020 -4.95415e-022
LeftArm  -29.9222 -52.2586 -70.314
LeftForeArm  -145.78 -41.4678 -8.45323
LeftHand  9.75488 -17.9708 -57.0964
RightShoulder  0 2.42657e-020 1.07489e-018
RightArm  -33.8776 39.0259 96.0472
RightForeArm  26.4844 24.5864 4.62229
RightHand  -1.2608 20.5657 -6.57335
LeftUpLeg  -44.1523 0.865042 5.46891
LeftLeg  66.4012 5.23298 10.0161
LeftFoot  -11.6887 -0.328501 -3.20851
LeftToes  -9.29234 1.18758e-006 1.19596e-007
133
root  37.9923 30.9498 47.3146 -153.94 -51.4851 -179.122
RightUpLeg  -51.5475 3.89296 12.1255
RightLeg  46.1549 -0.185812 -0.205761
RightFoot  -14.5107 -0.156298 -0.850134
RightToes  -18.7916 -0.0748253 -0.167036
Spine  21.5042 -1.83388 -2.14683
Spine1  33.5754 -6.3209 -0.701616
HEad  4.47309 -7.26987 22.1078
LeftShoulder1  0 -2.42657e-020 -4.95415e-022
LeftArm  -31.2645 -57.3943 -68.233
LeftForeArm  -141.725 -29.1949 -5.21402
LeftHand  9.46593 -18.3635 -54.632
RightShoulder  0 2.42657e-020 1.07489e-018
RightArm  -30.2269 42.1479 99.2229
RightForeArm  25.4436 22.7714 4.23976
RightHand  -0.94631 20.4528 -4.87346
LeftUpLeg  -50.1994 -4.94818 6.47569
LeftLeg  68.8426 4.30504 9.1965
LeftFoot  -13.6597 -0.366469 -3.05903
LeftToes  -7.71743 1.18758e-006 1.19596e-007
134
root  37.1443 30.6112 46.7655 -153.889 -47.8741 -179.171
RightUpLeg  -51.2895 5.28579 11.62
RightLeg  49.4692 0.644403 0.617555
RightFoot  -16.9622 -0.232038 -1.17851
RightToes  -15.535 -0.0579915 -0.139989
Spine  22.2943 -2.0878 -2.62858
Spine1  34.3429 -6.52563 -0.889375
HEad  6.13587 -4.30916 19.1431
LeftShoulder1  0 -2.42657e-020 -4.95415e-022
LeftArm  -32.9378 -62.2821 -65.5443
LeftForeArm  -137.332 -19.4736 -3.17425
LeftHand  8.90437 -21.0469 -45.8647
RightShoulder  0 2.42657e-020 1.07489e-018
RightArm  -28.2934 45.2095 101.798
RightForeArm  26.1835 20.2773 3.73023
RightHand  -1.03554 22.4222 -4.85242
LeftUpLeg  -56.6876 -9.54292 8.15909
LeftLeg  69.8085 3.00808 6.74638
LeftFoot  -14.658 -0.288609 -2.24366
LeftToes  -8.31307 1.18758e-006 1.19596e-007
135
root  36.2165 30.2643 46.1171 -153.812 -44.776 -179.589
RightUpLeg  -50.4071 6.0894 10.8832
RightLeg  52.4579 1.51683 1.67609
RightFoot  -19.8514 -0.351968 -1.63367
RightToes  -15.5869 -0.0582478 -0.140428
Spine  22.8423 -2.17145 -2.78795
Spine1  34.9076 -5.76686 -1.30183
HEad  7.62248 -2.05473 15.9751
LeftShoulder1  0 -2.42657e-020 -4.95415e-022
LeftArm  -29.6175 -66.364 -64.4854
LeftForeArm  -127.044 -11.0705 -1.61437
LeftHand  7.44759 -24.0576 -34.3485
RightShoulder  0 2.42657e-020 1.07489e-018
RightArm  -29.3813 48.4912 103.309
RightForeArm  27.8551 17.1827 3.12072
RightHand  -0.517167 22.9848 -2.17386
LeftUpLeg  -62.656 -12.477 9.6377
LeftLeg  69.1024 1.79474 3.90186
LeftFoot  -14.7116 -0.157593 -1.22074
LeftToes  -10.0767 1.18758e-006 1.19596e-007
136
root  35.1965 29.9584 45.3692 -153.938 -41.6947 179.739
RightUpLeg  -48.6888 6.4069 9.92376
RightLeg  54.9452 2.65264 3.23848
RightFoot  -22.1443 -0.537036 -2.36638
RightToes  -15.3387 -0.0570264 -0.138329
Spine  22.9112 -1.82874 -2.62454
Spine1  34.958 -3.73027 -1.75365
HEad  8.57218 -0.870721 12.5975
LeftShoulder1  0 -2.42657e-020 -4.95415e-022
LeftArm  -22.273 -67.2995 -70.1196
LeftForeArm  -120.346 -5.49937 -0.634287
LeftHand  6.58577 -27.6436 -26.7008
RightShoulder  0 2.42657e-020 1.07489e-018
RightArm  -33.6291 51.2119 102.483
RightForeArm  30.1578 14.1499 2.54322
RightHand  -0.303355 23.5433 -1.08588
LeftUpLeg  -67.1682 -13.4592 9.55255
LeftLeg  66.6568 0.54778 1.06011
LeftFoot  -13.1991 -0.0185795 -0.160598
LeftToes  -12.178 1.18758e-006 1.19596e-007
137
root  34.1674 29.8128 44.4199 -154.171 -39.1939 179.579
RightUpLeg  -45.8149 7.90789 9.13489
RightLeg  55.2062 2.7419 3.38019
RightFoot  -24.5096 -0.636984 -2.55451
RightToes  -13.89 -0.0500795 -0.125975
Spine  22.2338 -1.092 -2.01577
Spine1  33.9727 -0.971065 -1.69573
HEad  10.1638 -0.526491 9.21881
LeftShoulder1  0 -2.42657e-020 -4.95415e-022
LeftArm  -17.0372 -63.4137 -78.2582
LeftForeArm  -119.288 -5.47131 -0.631633
LeftHand  7.27745 -29.6087 -27.4339
RightShoulder  0 2.42657e-020 1.07489e-018
RightArm  -40.9629 52.3653 98.6108
RightForeArm  33.0688 11.754 2.09749
RightHand  -0.325049 23.1959 -1.21402
LeftUpLeg  -69.9868 -11.9399 7.71113
LeftLeg  62.4257 -1.31 -2.16861
LeftFoot  -9.41984 0.0634333 0.769901
LeftToes  -13.6782 1.18758e-006 1.19596e-007
138
root  33.1038 29.8396 43.2552 -154.512 -37.4259 179.454
RightUpLeg  -41.6506 9.65356 8.56181
RightLeg  53.628 2.37972 2.76914
RightFoot  -26.2759 -0.649692 -2.40553
RightToes  -11.4638 -0.0391523 -0.104904
Spine  21.226 -0.205083 -1.40798
Spine1  32.7295 1.81466 -1.42686
HEad  11.1079 -0.731097 7.55568
LeftShoulder1  0 -2.42657e-020 -4.95415e-022
LeftArm  -16.6778 -56.8718 -84.6764
LeftForeArm  -117.045 -7.87333 -1.06176
LeftHand  8.06896 -27.1697 -32.9203
RightShoulder  0 2.42657e-020 1.07489e-018
RightArm  -49.4175 51.3625 92.9976
RightForeArm  33.8377 10.7186 1.90774
RightHand  0.435027 21.3826 2.67473
LeftUpLeg  -70.6258 -8.40744 2.86606
LeftLeg  56.7496 -3.07589 -4.09236
LeftFoot  -4.47253 0.0423899 1.08549
LeftToes  -19.2383 1.18758e-006 1.19596e-007
